# xmcd
#
# Track frame offsets:
#	150
#	5202
#	10210
#	12885
#	15570
#	20602
#	25625
#	28327
#	30990
#	36062
#	41127
#	43930
#	46722
#	51647
#	56487
#	59187
#	61887
#	66902
#	71910
#	74687
#	77425
#	82447
#	87460
#	92402
#	97340
#	100027
#	102670
#	107610
#	112512
#	115215
#	117917
#	122915
#	125652
#	130665
#	135580
#	140620
#	145630
#	148465
#	151217
#	156177
#	161120
#	163890
#	166665
#	171575
#	176395
#	179062
#	181712
#	186662
#	191615
#	194280
#	196940
#	201937
#	206890
#	209595
#	212302
#	217327
#	222332
#	227312
#	230070
#	232812
#
# Disc length: 3136 seconds
#
# Revision: 1
# Processed by: cddbd v1.5.1PL0 Copyright (c) Steve Scherf et al.
# Submitted via: audiograbber 1.82.00
#
DISCID=870c3e3c
DTITLE=TM Century - MegaMusic - 506- Country
DYEAR=1900
DGENRE=
TTITLE0=8710-Slide and Stomp - Full Mix
TTITLE1=8710-Slide and Stomp - Rhythm Mix
TTITLE2=8710-Slide and Stomp - Full Mix-Edit
TTITLE3=8710-Slide and Stomp - Rhythm Mix-Edit
TTITLE4=8711-Road House Ruckus - Full Mix
TTITLE5=8711-Road House Ruckus - Rhythm Mix
TTITLE6=8711-Road House Ruckus - Full Mix-Edit
TTITLE7=8711-Road House Ruckus - Rhythm Mix-Edit
TTITLE8=8712-Hot Rod Rhythm - Full Mix
TTITLE9=8712-Hot Rod Rhythm - Rhythm Mix
TTITLE10=8712-Hot Rod Rhythm - Full Mix-Edit
TTITLE11=8712-Hot Rod Rhythm - Rhythm Mix-Edit
TTITLE12=8713-Evening Air - Full Mix
TTITLE13=8713-Evening Air - Rhythm Mix
TTITLE14=8713-Evening Air - Full Mix-Edit
TTITLE15=8713-Evening Air - Rhythm Mix-Edit
TTITLE16=8714-Norma Jean - Full Mix
TTITLE17=8714-Norma Jean - Rhythm Mix
TTITLE18=8714-Norma Jean - Full Mix-Edit
TTITLE19=8714-Norma Jean - Rhythm Mix-Edit
TTITLE20=8715-Kick It Dilbert - Full Mix
TTITLE21=8715-Kick It Dilbert - Rhythm Mix
TTITLE22=8716-Harvest - Full Mix
TTITLE23=8716-Harvest - Rhythm Mix
TTITLE24=8716-Harvest - Full Mix-Edit
TTITLE25=8716-Harvest - Rhythm Mix-Edit
TTITLE26=8717-Resolution - Full Mix
TTITLE27=8717-Resolution - Rhythm Mix
TTITLE28=8717-Resolution - Full Mix-Edit
TTITLE29=8717-Resolution - Rhythm Mix-Edit
TTITLE30=8718-Lemonaid Stand - Full Mix
TTITLE31=8718-Lemonaid Stand - Full Mix-Edit
TTITLE32=8719-Dry Them Eyes - Full Mix
TTITLE33=8719-Dry Them Eyes - Rhythm Mix
TTITLE34=8720-Country Smokehouse - Full Mix
TTITLE35=8720-Country Smokehouse - Rhythm Mix
TTITLE36=8720-Country Smokehouse - Full Mix-Edit
TTITLE37=8720-Country Smokehouse - Rhythm Mix-Edit
TTITLE38=8721-Granny's Kitchen - Full Mix
TTITLE39=8721-Granny's Kitchen - Rhythm Mix
TTITLE40=8721-Granny's Kitchen - Full Mix-Edit
TTITLE41=8721-Granny's Kitchen - Rhythm Mix-Edit
TTITLE42=8722-Hills and Trails - Full Mix
TTITLE43=8722-Hills and Trails - Rhythm Mix
TTITLE44=8722-Hills and Trails - Full Mix-Edit
TTITLE45=8722-Hills and Trails - Rhythm Mix-Edit
TTITLE46=8723-Aromatic - Full Mix
TTITLE47=8723-Aromatic - Rhythm Mix
TTITLE48=8723-Aromatic - Full Mix-Edit
TTITLE49=8723-Aromatic - Rhythm Mix-Edit
TTITLE50=8724-Reunion - Full Mix
TTITLE51=8724-Reunion - Rhythm Mix
TTITLE52=8724-Reunion - Full Mix-Edit
TTITLE53=8724-Reunion - Rhythm Mix-Edit
TTITLE54=8725-Dawn Becomes Day - Full Mix
TTITLE55=8725-Dawn Becomes Day - Without Melody
TTITLE56=8725-Dawn Becomes Day - Rhythm Mix
TTITLE57=8725-Dawn Becomes Day - Full Mix-Edit
TTITLE58=8725-Dawn Becomes Day - Without Melody-Edit
TTITLE59=8725-Dawn Becomes Day - Rhythm Mix-Edit
EXTD=
EXTT0=
EXTT1=
EXTT2=
EXTT3=
EXTT4=
EXTT5=
EXTT6=
EXTT7=
EXTT8=
EXTT9=
EXTT10=
EXTT11=
EXTT12=
EXTT13=
EXTT14=
EXTT15=
EXTT16=
EXTT17=
EXTT18=
EXTT19=
EXTT20=
EXTT21=
EXTT22=
EXTT23=
EXTT24=
EXTT25=
EXTT26=
EXTT27=
EXTT28=
EXTT29=
EXTT30=
EXTT31=
EXTT32=
EXTT33=
EXTT34=
EXTT35=
EXTT36=
EXTT37=
EXTT38=
EXTT39=
EXTT40=
EXTT41=
EXTT42=
EXTT43=
EXTT44=
EXTT45=
EXTT46=
EXTT47=
EXTT48=
EXTT49=
EXTT50=
EXTT51=
EXTT52=
EXTT53=
EXTT54=
EXTT55=
EXTT56=
EXTT57=
EXTT58=
EXTT59=
PLAYORDER=
